<?xml version="1.0" encoding="UTF-8"?>
<svg id="Layer_1" data-name="Layer 1" xmlns="http://www.w3.org/2000/svg" viewBox="0 0 1766.49 1994.19">
  <defs>
    <style>
      .cls-1 {
        fill: #fff;
      }
    </style>
  </defs>
  <path class="cls-1" d="M889.59,1994.19l-743.51-208.96L0,0l1766.49,3.63-154.43,1781.36-722.47,209.2ZM240.07,1707.78l649.1,182.42,629.18-182.18L1657.47,103.41l-1548.93-3.19,131.54,1607.56Z"/>
  <polygon class="cls-1" points="875.73 1583.8 447.93 1464.34 419.49 1134.38 627.72 1134.38 640.23 1295.95 875.74 1364.21 889.38 1360.53 1107.85 1301.64 1136.28 1030.86 411.52 1030.86 353.5 395.98 1403.65 395.98 1384.32 603.07 582.2 603.07 603.81 820.37 1364.95 820.37 1306.94 1464.34 889.38 1580.02 875.73 1583.8"/>
</svg>