<?xml version="1.0" encoding="UTF-8"?>
<svg id="Layer_1" data-name="Layer 1" xmlns="http://www.w3.org/2000/svg" viewBox="0 0 1541.89 1541.89">
  <defs>
    <style>
      .cls-1 {
        fill: #fff;
      }
    </style>
  </defs>
  <path class="cls-1" d="M1541.89,1541.89H0V0h1541.89v1541.89ZM100,1441.89h1341.89V100H100v1341.89Z"/>
  <g>
    <path class="cls-1" d="M929.84,896.79v362.45c0,44.87-13.66,80.31-40.92,106.33-27.2,26.08-63.06,39.1-107.39,39.1s-80.19-13.01-107.45-39.1c-27.26-26.02-40.86-61.47-40.86-106.33h83.19c.47,22.2,6.12,39.8,17.02,52.81,10.83,13.01,26.85,19.55,48.1,19.55s37.33-6.65,48.46-19.9c11.07-13.25,16.66-30.73,16.66-52.46v-362.45h83.19Z"/>
    <path class="cls-1" d="M1138.15,1386.95c-27.03-11.83-48.22-28.56-63.65-50.28-15.43-21.73-23.14-47.04-23.14-75.95h88.26c1.88,21.67,10.48,39.57,25.67,53.52,15.19,14.01,36.56,20.96,64.06,20.96s50.64-6.83,66.53-20.61c15.9-13.72,23.9-31.44,23.9-53.17,0-16.9-5-30.62-14.84-41.21-9.89-10.66-22.2-18.84-36.92-24.61-14.72-5.83-35.09-12.07-61.12-18.84-32.85-8.66-59.47-17.49-79.96-26.38-20.49-8.95-37.98-22.79-52.46-41.63-14.48-18.78-21.73-43.86-21.73-75.25,0-28.91,7.24-54.23,21.73-75.95,14.48-21.73,34.74-38.33,60.76-49.93,26.02-11.54,56.17-17.37,90.44-17.37,48.69,0,88.61,12.19,119.76,36.56,31.09,24.38,48.34,57.76,51.7,100.21h-91.14c-1.41-18.37-10.13-34.03-26.02-47.04-15.96-13.01-36.92-19.55-62.94-19.55-23.67,0-42.98,6.06-57.88,18.08-14.96,12.07-22.43,29.44-22.43,52.11,0,15.43,4.71,28.08,14.07,37.98,9.42,9.89,21.37,17.72,35.86,23.55,14.43,5.77,34.21,12.01,59.29,18.78,33.27,9.19,60.41,18.37,81.43,27.5,20.96,9.19,38.8,23.26,53.52,42.33,14.72,19.08,22.08,44.51,22.08,76.31,0,25.61-6.89,49.69-20.67,72.36-13.72,22.67-33.74,40.86-60,54.64-26.32,13.72-57.29,20.61-92.97,20.61-33.8,0-64.18-5.89-91.2-17.72Z"/>
  </g>
</svg>