<?xml version="1.0" encoding="UTF-8"?>
<svg id="layer" xmlns="http://www.w3.org/2000/svg" viewBox="0 0 164.06 350.69">
  <defs>
    <style>
      .cls-1 {
        fill: #fff;
      }
    </style>
  </defs>
  <path class="cls-1" d="M112.62,39.05C97.83,21.5,85.3,3.95,82.54.19c-.25-.25-.75-.25-1,0-2.51,3.76-15.29,21.31-30.09,38.86-126.36,161.21,19.81,270.02,19.81,270.02l1.25.75c1,16.8,3.76,40.87,3.76,40.87h11.03s2.76-24.07,3.76-40.87l1.25-1c.5.25,146.67-108.56,20.31-269.77ZM90.56,298.04c-1.76,3.01-8.52,8.52-8.52,8.52,0,0-6.52-5.52-8.27-8.52v-.25l8.02-175.5c0-.5.75-.5.75,0l8.02,175.5v.25Z"/>
</svg>