<?xml version="1.0" encoding="UTF-8"?>
<svg id="Layer_1" data-name="Layer 1" xmlns="http://www.w3.org/2000/svg" viewBox="0 0 2028.84 2287.82">
  <defs>
    <style>
      .cls-1 {
        fill: #fff;
      }
    </style>
  </defs>
  <path class="cls-1" d="M1014.42,2287.82c-30.86.01-61.19-8.1-87.92-23.53l-279.77-165.62c-41.75-23.37-21.41-31.62-7.6-36.44,44.41-13.72,86.93-32.93,126.57-57.2,6.75-3.12,14.63-2.53,20.84,1.55l214.98,127.71c8.13,4.3,17.86,4.3,25.98,0l838.34-483.88c7.98-4.78,12.85-13.41,12.83-22.72v-967.93c0-9.45-4.92-18.21-12.99-23.12l-838.34-483.47c-8.04-4.53-17.86-4.53-25.9,0L163.58,636.81c-8.13,4.81-13.15,13.52-13.24,22.96v967.52c.02,9.29,5.05,17.85,13.16,22.39l229.93,132.7c124.61,62.26,200.92-11.11,200.92-84.81v-955.26c0-13.54,10.97-24.51,24.51-24.51h106.22c13.54,0,24.51,10.97,24.51,24.51h0v955.34c0,166.28-90.53,261.47-248.23,261.47-68.03,1.19-135-17.01-193.08-52.46l-220.37-126.4C33.48,1748.54,0,1690.29,0,1627.29v-967.52c-.16-63.11,33.35-121.51,87.92-153.2L926.34,22.52c54.88-30.03,121.28-30.03,176.16,0l838.34,484.05c54.44,31.64,87.95,89.83,88,152.8v967.93c-.09,63-33.59,121.22-88,152.96l-838.34,484.05c-26.78,15.45-57.16,23.57-88.08,23.53h0Z"/>
  <path class="cls-1" d="M855.41,1303.47c0-13.54,10.97-24.51,24.51-24.51h108.43c11.96.04,22.15,8.71,24.1,20.51,16.34,110.39,65.37,166.03,287.04,166.03,176.57,0,251.83-39.96,251.83-133.68,0-54.01-21.33-94.13-295.79-121.01-229.44-22.72-371.29-73.54-371.29-256.89,0-169.14,142.58-270.05,381.58-270.05,268.58,0,401.52,93.23,418.35,293.25,1.04,13.5-9.06,25.28-22.56,26.32-.51.04-1.03.06-1.55.07h-109.16c-11.27-.16-20.98-7.98-23.53-18.96-26.07-116.11-89.88-153.2-261.47-153.2-192.83,0-215.22,67.16-215.22,117.5,0,60.96,26.47,78.77,286.8,113.17,257.63,34.07,380.03,82.28,380.03,263.35s-152.31,287.29-417.94,287.29c-367.28.49-444.17-167.91-444.17-309.19h0Z"/>
</svg>