<?xml version="1.0" encoding="UTF-8"?>
<svg id="Layer_1" data-name="Layer 1" xmlns="http://www.w3.org/2000/svg" viewBox="0 0 2465.18 2499.5">
  <defs>
    <style>
      .cls-1 {
        fill: #fff;
      }
    </style>
  </defs>
  <path class="cls-1" d="M2410.5,1188.54c27.09,60.43,44.28,125.03,51.31,190.93,6.77,65.9,3.39,132.58-10.68,197.44-13.8,64.86-37.77,127.11-71.11,184.41-21.88,38.29-47.67,74.23-77.36,107.31-29.43,32.82-62.25,62.51-97.94,88.56-35.94,26.05-74.23,47.93-114.87,65.9-40.37,17.71-82.57,31.26-125.81,40.11-20.32,63.03-50.53,122.68-89.6,176.34-38.81,53.66-85.96,100.8-139.61,139.61-53.66,39.07-113.04,69.29-176.08,89.6-63.03,20.58-128.93,30.74-195.35,30.74-44.02.26-88.3-4.43-131.54-13.28-42.98-9.12-85.17-22.92-125.55-40.89s-78.66-40.37-114.35-66.42c-35.42-26.05-68.24-56-97.42-89.08-65.12,14.07-131.8,17.45-197.7,10.68-65.9-7.03-130.5-24.22-191.19-51.31-60.43-26.83-116.43-63.29-165.66-107.84s-91.16-96.63-124.24-153.94c-22.14-38.29-40.37-78.66-54.18-120.6s-22.92-85.17-27.61-129.19c-4.69-43.76-4.43-88.04.26-132.06,4.69-43.76,14.33-87,28.13-128.93-44.28-49.23-80.75-105.23-107.83-165.66-26.83-60.69-44.28-125.03-51.05-190.93-7.03-65.9-3.39-132.58,10.42-197.44,13.8-64.86,37.77-127.11,71.11-184.41,21.88-38.29,47.67-74.49,77.1-107.31,29.43-32.82,62.51-62.51,98.2-88.56s74.23-48.19,114.61-65.9c40.63-17.97,82.83-31.26,126.07-40.11,20.32-63.29,50.53-122.68,89.34-176.34,39.07-53.66,86.22-100.8,139.87-139.87,53.66-38.81,113.04-69.02,176.08-89.6C969.32,10.17,1035.22-.25,1101.64.01c44.02-.26,88.3,4.17,131.54,13.28,43.24,9.12,85.43,22.66,125.81,40.63,40.37,18.23,78.66,40.37,114.35,66.42,35.68,26.31,68.5,56,97.68,89.08,64.86-13.8,131.54-17.19,197.44-10.42s130.24,24.22,190.93,51.05c60.43,27.09,116.43,63.29,165.66,107.83,49.23,44.28,91.16,96.11,124.24,153.68,22.14,38.03,40.37,78.4,54.18,120.6,13.8,41.94,23.18,85.17,27.61,129.19,4.69,44.02,4.69,88.3-.26,132.32-4.69,44.02-14.33,87.26-28.13,129.19,44.54,49.23,80.75,104.97,107.84,165.66h0ZM1542.61,2300.49c56.78-23.44,108.36-58.08,151.85-101.58s78.14-95.07,101.58-152.12c23.44-56.78,35.68-117.73,35.68-179.2v-580.85c-.17-.52-.35-1.13-.52-1.82-.17-.52-.43-1.04-.78-1.56s-.78-.96-1.3-1.3c-.52-.52-1.04-.87-1.56-1.04l-210.2-121.38v701.71c0,7.03-1.04,14.33-2.87,21.1-1.82,7.03-4.43,13.54-8.07,19.8s-7.81,11.98-13.02,16.93c-5.06,5.05-10.75,9.42-16.93,13.02l-497.76,287.3c-4.17,2.6-11.2,6.25-14.85,8.34,20.58,17.45,42.98,32.82,66.42,46.36,23.7,13.54,48.19,25.01,73.71,34.38,25.53,9.12,51.83,16.15,78.4,20.84,26.83,4.69,53.92,7.03,81.01,7.03,61.47,0,122.42-12.24,179.2-35.94h0ZM357.21,1906.14c31,53.4,71.89,99.76,120.6,137.27,48.97,37.51,104.45,64.86,163.84,80.75s121.38,20.06,182.33,11.98,119.56-27.87,172.95-58.61l503.23-290.43,1.3-1.3c.35-.35.61-.87.78-1.56.35-.52.61-1.04.78-1.56v-244.84l-607.42,351.38c-6.25,3.65-12.76,6.25-19.54,8.34-7.03,1.82-14.07,2.6-21.36,2.6s-14.07-.78-21.1-2.6c-6.77-2.08-13.54-4.69-19.8-8.34l-497.76-287.56c-4.43-2.6-10.94-6.51-14.59-8.86-4.69,26.83-7.03,53.92-7.03,81.01s2.6,54.18,7.29,81.01c4.69,26.57,11.98,52.88,21.1,78.4,9.38,25.53,20.84,50.01,34.38,73.45v-.52ZM226.46,819.97c-30.74,53.4-50.53,112.26-58.61,173.21s-3.91,122.68,11.98,182.33c15.89,59.39,43.24,114.87,80.75,163.84,37.51,48.71,84.13,89.6,137.27,120.34l502.97,290.69c.52.17,1.13.35,1.82.52h1.82c.69,0,1.3-.17,1.82-.52.52-.17,1.04-.43,1.56-.78l210.98-121.9-607.42-350.59c-5.99-3.65-11.72-8.07-16.93-13.02-5.05-5.06-9.42-10.75-13.02-16.93-3.39-6.25-6.25-12.76-8.07-19.8-1.82-6.77-2.87-13.8-2.6-21.1v-591.53c-25.53,9.38-50.27,20.84-73.71,34.38-23.44,13.8-45.58,29.43-66.42,46.88-20.58,17.45-39.85,36.73-57.3,57.56-17.45,20.58-32.82,42.98-46.36,66.42h-.52ZM1954.16,1222.14c6.25,3.65,11.98,7.81,17.19,13.02,4.95,4.95,9.38,10.68,13.02,16.93,3.39,6.25,6.25,13.02,8.07,19.8,1.56,7.03,2.6,14.07,2.34,21.36v591.53c83.61-30.74,156.54-84.65,210.46-155.5,54.18-70.85,86.74-155.5,94.29-244.06s-10.16-177.64-51.31-256.56-103.93-144.56-181.03-188.84l-502.97-290.69c-.52-.17-1.13-.35-1.82-.52h-1.82c-.52.17-1.13.35-1.82.52-.52.17-1.04.43-1.56.78l-209.94,121.38,607.42,350.85h-.52ZM2163.84,906.97h-.26v.26l.26-.26ZM2163.58,906.71c15.11-87.52,4.95-177.64-29.43-259.69-34.12-82.05-91.16-152.64-164.1-203.69-72.93-50.79-158.89-79.96-247.71-83.87-89.08-3.65-177.12,17.97-254.22,62.25l-502.97,290.43c-.52.35-.95.78-1.3,1.3l-1.04,1.56c-.17.52-.35,1.13-.52,1.82-.17.52-.26,1.13-.26,1.82v242.76l607.42-350.85c6.25-3.65,13.02-6.25,19.8-8.34,7.03-1.82,14.07-2.6,21.1-2.6s14.33.78,21.36,2.6c6.77,2.08,13.28,4.69,19.54,8.34l497.76,287.56c4.43,2.6,10.94,6.25,14.59,8.6ZM847.42,637.9c0-7.03,1.04-14.07,2.87-21.1,1.82-6.77,4.43-13.54,8.07-19.8,3.65-5.99,7.81-11.72,13.02-16.93s10.68-9.38,16.93-12.76l497.76-287.3c4.69-2.87,11.2-6.51,14.85-8.34-68.24-57.04-151.59-93.51-239.89-104.71-88.3-11.46-177.9,2.6-258.39,40.37-80.75,37.77-148.99,97.94-196.66,172.95-47.67,75.28-72.93,162.27-72.93,251.35v580.85c.17.69.35,1.3.52,1.82.17.52.43,1.04.78,1.56s.78,1.04,1.3,1.56c.35.35.87.69,1.56,1.04l210.2,121.38v-701.97ZM961.5,1405.51l270.63,156.28,270.63-156.28v-312.3l-270.37-156.28-270.63,156.28-.26,312.3Z"/>
</svg>