<?xml version="1.0" encoding="UTF-8"?>
<svg id="Layer_1" data-name="Layer 1" xmlns="http://www.w3.org/2000/svg" viewBox="0 0 102.3 15.84">
  <defs>
    <style>
      .cls-1 {
        fill: #fff;
      }
    </style>
  </defs>
  <g>
    <path class="cls-1" d="M8.38,10.36l-2.47,3.98h-3.39l5.86-9.81,2.6,4.34c.85-.29,1.12-.78,1.12-.78l-3.48-5.66h-.59L0,15.84h6.77l2.26-3.99c.76,0,6.5-.76,6.25-6.11-.13-2.87-1.68-4.31-3.1-5.03-.96-.49-2.03-.71-3.1-.71H.62l3.44,5.73.73-1.47-1.78-2.98,6.33.11c.94.02,1.87.25,2.67.76.98.62,1.96,1.74,1.97,3.72.03,3.74-3.5,4.76-5.61,4.49Z"/>
    <polyline class="cls-1" points="12.29 10.93 14.28 14.39 9.72 14.39 8.89 15.84 16.84 15.84 13.54 10.09"/>
  </g>
  <g>
    <path class="cls-1" d="M20.54,11.88l3.18-7.79h1.22l3.2,7.79h-1.25l-2.78-7.03h.43l-2.77,7.03h-1.24ZM22.23,9.95v-1.03h4.18v1.03h-4.18Z"/>
    <path class="cls-1" d="M35.91,10.61l-.34.12v-6.64h1.16v7.79h-1.16l-5.44-6.49.34-.12v6.61h-1.15v-7.79h1.15l5.44,6.52Z"/>
    <path class="cls-1" d="M41.75,4.09c.81,0,1.49.1,2.03.31s.99.49,1.32.85c.33.36.57.77.71,1.24.14.46.22.96.22,1.48s-.08,1-.23,1.48c-.16.47-.4.89-.74,1.26-.34.37-.78.66-1.33.87-.54.21-1.2.32-1.98.32h-3.12v-7.79h3.12ZM39.78,10.84h1.96c.62,0,1.12-.08,1.52-.25.4-.16.72-.38.95-.66.24-.28.4-.59.5-.93.1-.34.15-.69.15-1.04s-.05-.71-.15-1.04c-.1-.34-.27-.64-.5-.91-.24-.27-.55-.48-.95-.64-.4-.16-.91-.23-1.52-.23h-1.96v5.7Z"/>
    <path class="cls-1" d="M47.6,11.88v-7.79h4.01c.56,0,1.04.08,1.45.25.4.16.71.41.93.74s.32.75.32,1.27c0,.35-.06.65-.17.89-.12.24-.27.45-.47.61s-.44.28-.71.37c-.27.09-.56.14-.88.17l-.08-.07c.47.02.87.07,1.19.16.32.09.57.25.74.47.17.23.26.57.26,1.01v1.92h-1.16v-1.88c0-.31-.05-.56-.16-.73-.1-.18-.28-.3-.54-.37-.26-.07-.62-.11-1.08-.11h-2.48v3.1h-1.15ZM48.75,7.78h2.86c.51,0,.9-.13,1.16-.38.26-.26.39-.59.39-1.01s-.13-.71-.39-.92c-.26-.22-.65-.32-1.16-.32h-2.86v2.64Z"/>
    <path class="cls-1" d="M57.13,8.51v2.34h5.02v1.03h-6.17v-7.79h6.16v1.03h-5v2.38h4.09v1.01h-4.09Z"/>
    <path class="cls-1" d="M64.06,4.09h1.15v7.79h-1.15v-7.79Z"/>
    <path class="cls-1" d="M70.92,9.19v-1.01h2.8c.46,0,.84-.14,1.12-.42.28-.28.43-.65.43-1.1s-.14-.84-.43-1.12-.66-.41-1.12-.41h-2.6v6.74h-1.15v-7.79h3.71c.38,0,.74.05,1.07.16s.62.27.88.49c.25.22.45.48.59.8s.21.69.21,1.12-.07.78-.21,1.1c-.14.32-.34.59-.59.8-.25.21-.54.37-.88.47-.33.1-.69.16-1.07.16h-2.75Z"/>
    <path class="cls-1" d="M81.75,12.01c-.81,0-1.53-.16-2.15-.49-.63-.33-1.12-.79-1.48-1.39-.36-.6-.53-1.31-.53-2.14s.18-1.55.53-2.15c.36-.6.85-1.06,1.48-1.39.63-.33,1.35-.49,2.15-.49s1.54.16,2.16.49c.62.33,1.12.79,1.48,1.39s.54,1.32.54,2.15-.18,1.54-.54,2.14-.85,1.06-1.48,1.39c-.62.33-1.34.49-2.16.49ZM81.75,10.97c.58,0,1.09-.11,1.54-.34.45-.22.8-.56,1.07-1,.26-.44.4-.99.4-1.64s-.13-1.2-.4-1.64c-.26-.44-.62-.77-1.07-1-.45-.23-.96-.34-1.54-.34s-1.07.11-1.52.34-.82.56-1.08,1c-.26.44-.4.99-.4,1.64s.13,1.2.4,1.64c.26.44.62.77,1.08,1s.96.34,1.52.34Z"/>
    <path class="cls-1" d="M88.42,9.19v-1.01h2.8c.46,0,.84-.14,1.12-.42.28-.28.43-.65.43-1.1s-.14-.84-.43-1.12-.66-.41-1.12-.41h-2.6v6.74h-1.15v-7.79h3.71c.38,0,.74.05,1.07.16s.62.27.88.49c.25.22.45.48.59.8s.21.69.21,1.12-.07.78-.21,1.1c-.14.32-.34.59-.59.8-.25.21-.54.37-.88.47-.33.1-.69.16-1.07.16h-2.75Z"/>
    <path class="cls-1" d="M94.69,11.88l3.18-7.79h1.22l3.2,7.79h-1.25l-2.78-7.03h.43l-2.77,7.03h-1.24ZM96.39,9.95v-1.03h4.18v1.03h-4.18Z"/>
  </g>
</svg>