<?xml version="1.0" encoding="UTF-8"?>
<svg id="Layer_1" data-name="Layer 1" xmlns="http://www.w3.org/2000/svg" viewBox="0 0 44.06 41.45">
  <defs>
    <style>
      .cls-1 {
        fill: #fff;
      }
    </style>
  </defs>
  <path class="cls-1" d="M21.93,27.12l-6.46,10.4H6.6l15.33-25.66,6.8,11.36c2.21-.77,2.94-2.04,2.94-2.04l-9.11-14.81h-1.53L0,41.45h17.7l5.93-10.45c2,0,17-2,16.35-16-.35-7.5-4.41-11.27-8.1-13.15-2.5-1.28-5.31-1.85-8.11-1.85H1.63l9,15,1.9-3.84L7.87,3.37l16.57.29c2.46.04,4.9.67,6.98,1.98,2.56,1.62,5.13,4.54,5.17,9.73.07,9.78-9.17,12.45-14.67,11.74Z"/>
  <polyline class="cls-1" points="32.17 28.59 37.36 37.65 25.43 37.65 23.26 41.45 44.06 41.45 35.42 26.39"/>
</svg>